<svg xmlns="http://www.w3.org/2000/svg" width="600" height="800" viewBox="0 0 600 800" data-comfy-art="local-svg"><defs><linearGradient id="s" x2=".3" y2="1"><stop stop-color="#8fbbb0"/><stop offset=".6" stop-color="#f1d3a3"/><stop offset="1" stop-color="#548780"/></linearGradient><linearGradient id="h" x2="1" y2="1"><stop stop-color="#566976"/><stop offset=".5" stop-color="#203e3d"/></linearGradient><linearGradient id="c" x2="1" y2=".4"><stop stop-color="#203e3d"/><stop offset=".5" stop-color="#548780"/><stop offset="1" stop-color="#203e3d"/></linearGradient><linearGradient id="skin"><stop stop-color="#fbe3ce"/><stop offset="1" stop-color="#d2aa99"/></linearGradient><filter id="grain"><feTurbulence baseFrequency=".7" numOctaves="2" stitchTiles="stitch"/><feComponentTransfer><feFuncA type="linear" slope=".035"/></feComponentTransfer><feBlend in="SourceGraphic" mode="soft-light"/></filter></defs><g filter="url(#grain)"><path fill="url(#s)" d="M0 0h600v800H0Z"/><circle cx="429.9396556476131" cy="155" r="46" fill="#f1d3a3" opacity=".85"/><path d="M16.602885955944657 228.16831703530625q70-32 112-5q35-62 83-23q66-27 106 25q-130 19-301 3Z" fill="#f1d3a3" opacity=".3"/><path d="M279.002839140594 219.71780830761418q70-32 112-5q35-62 83-23q66-27 106 25q-130 19-301 3Z" fill="#f1d3a3" opacity=".3"/><path d="M-66.83950372971594 207.5708841928281q70-32 112-5q35-62 83-23q66-27 106 25q-130 19-301 3Z" fill="#f1d3a3" opacity=".3"/><path d="M444.6649962104857 173.51628157077357q70-32 112-5q35-62 83-23q66-27 106 25q-130 19-301 3Z" fill="#f1d3a3" opacity=".3"/><path d="M492.5418667960912 196.15027678431943q70-32 112-5q35-62 83-23q66-27 106 25q-130 19-301 3Z" fill="#f1d3a3" opacity=".3"/><path d="M-57.10062049329281 214.46274902438745q70-32 112-5q35-62 83-23q66-27 106 25q-130 19-301 3Z" fill="#f1d3a3" opacity=".3"/><path d="M214.10780209116638 72.84673614660278q70-32 112-5q35-62 83-23q66-27 106 25q-130 19-301 3Z" fill="#f1d3a3" opacity=".3"/><path d="M-6.149095389991999 302.77196143520996q70-32 112-5q35-62 83-23q66-27 106 25q-130 19-301 3Z" fill="#f1d3a3" opacity=".3"/><path d="M217.90079311467707 180.51320045487955q70-32 112-5q35-62 83-23q66-27 106 25q-130 19-301 3Z" fill="#f1d3a3" opacity=".3"/><path d="m0 423 75-100 77 24 103-144 139 178 95-60 111 99v120H0Z" fill="#548780" opacity=".28"/><rect x="0" y="361.14861834794283" width="22.067754921736196" height="98.85138165205717" fill="#548780" opacity=".6"/><rect x="5" y="374.14861834794283" width="3" height="6" fill="#f1d3a3" opacity=".45"/><rect x="5" y="394.14861834794283" width="3" height="6" fill="#f1d3a3" opacity=".45"/><rect x="5" y="414.14861834794283" width="3" height="6" fill="#f1d3a3" opacity=".45"/><rect x="5" y="434.14861834794283" width="3" height="6" fill="#f1d3a3" opacity=".45"/><rect x="5" y="454.14861834794283" width="3" height="6" fill="#f1d3a3" opacity=".45"/><rect x="29" y="360.8236317615956" width="27.1658391028177" height="99.1763682384044" fill="#548780" opacity=".6"/><rect x="34" y="373.8236317615956" width="3" height="6" fill="#f1d3a3" opacity=".45"/><rect x="34" y="393.8236317615956" width="3" height="6" fill="#f1d3a3" opacity=".45"/><rect x="34" y="413.8236317615956" width="3" height="6" fill="#f1d3a3" opacity=".45"/><rect x="34" y="433.8236317615956" width="3" height="6" fill="#f1d3a3" opacity=".45"/><rect x="34" y="453.8236317615956" width="3" height="6" fill="#f1d3a3" opacity=".45"/><rect x="58" y="412.25138733163476" width="26.6549270527903" height="47.74861266836524" fill="#548780" opacity=".6"/><rect x="63" y="425.25138733163476" width="3" height="6" fill="#f1d3a3" opacity=".45"/><rect x="63" y="445.25138733163476" width="3" height="6" fill="#f1d3a3" opacity=".45"/><rect x="63" y="465.25138733163476" width="3" height="6" fill="#f1d3a3" opacity=".45"/><rect x="63" y="485.25138733163476" width="3" height="6" fill="#f1d3a3" opacity=".45"/><rect x="63" y="505.25138733163476" width="3" height="6" fill="#f1d3a3" opacity=".45"/><rect x="87" y="278.4836470428854" width="19.044807493453845" height="181.51635295711458" fill="#548780" opacity=".6"/><rect x="92" y="291.4836470428854" width="3" height="6" fill="#f1d3a3" opacity=".45"/><rect x="92" y="311.4836470428854" width="3" height="6" fill="#f1d3a3" opacity=".45"/><rect x="92" y="331.4836470428854" width="3" height="6" fill="#f1d3a3" opacity=".45"/><rect x="92" y="351.4836470428854" width="3" height="6" fill="#f1d3a3" opacity=".45"/><rect x="92" y="371.4836470428854" width="3" height="6" fill="#f1d3a3" opacity=".45"/><rect x="116" y="375.6789529323578" width="36.29937523906119" height="84.32104706764221" fill="#548780" opacity=".6"/><rect x="121" y="388.6789529323578" width="3" height="6" fill="#f1d3a3" opacity=".45"/><rect x="121" y="408.6789529323578" width="3" height="6" fill="#f1d3a3" opacity=".45"/><rect x="121" y="428.6789529323578" width="3" height="6" fill="#f1d3a3" opacity=".45"/><rect x="121" y="448.6789529323578" width="3" height="6" fill="#f1d3a3" opacity=".45"/><rect x="121" y="468.6789529323578" width="3" height="6" fill="#f1d3a3" opacity=".45"/><rect x="145" y="258.42546491883695" width="23.858144181547686" height="201.57453508116305" fill="#548780" opacity=".6"/><rect x="150" y="271.42546491883695" width="3" height="6" fill="#f1d3a3" opacity=".45"/><rect x="150" y="291.42546491883695" width="3" height="6" fill="#f1d3a3" opacity=".45"/><rect x="150" y="311.42546491883695" width="3" height="6" fill="#f1d3a3" opacity=".45"/><rect x="150" y="331.42546491883695" width="3" height="6" fill="#f1d3a3" opacity=".45"/><rect x="150" y="351.42546491883695" width="3" height="6" fill="#f1d3a3" opacity=".45"/><rect x="174" y="382.7771165035665" width="30.945769919315353" height="77.2228834964335" fill="#548780" opacity=".6"/><rect x="179" y="395.7771165035665" width="3" height="6" fill="#f1d3a3" opacity=".45"/><rect x="179" y="415.7771165035665" width="3" height="6" fill="#f1d3a3" opacity=".45"/><rect x="179" y="435.7771165035665" width="3" height="6" fill="#f1d3a3" opacity=".45"/><rect x="179" y="455.7771165035665" width="3" height="6" fill="#f1d3a3" opacity=".45"/><rect x="179" y="475.7771165035665" width="3" height="6" fill="#f1d3a3" opacity=".45"/><rect x="203" y="266.9029906857759" width="28.758327146759257" height="193.09700931422412" fill="#548780" opacity=".6"/><rect x="208" y="279.9029906857759" width="3" height="6" fill="#f1d3a3" opacity=".45"/><rect x="208" y="299.9029906857759" width="3" height="6" fill="#f1d3a3" opacity=".45"/><rect x="208" y="319.9029906857759" width="3" height="6" fill="#f1d3a3" opacity=".45"/><rect x="208" y="339.9029906857759" width="3" height="6" fill="#f1d3a3" opacity=".45"/><rect x="208" y="359.9029906857759" width="3" height="6" fill="#f1d3a3" opacity=".45"/><rect x="232" y="334.93341218680143" width="31.14926660922356" height="125.06658781319857" fill="#548780" opacity=".6"/><rect x="237" y="347.93341218680143" width="3" height="6" fill="#f1d3a3" opacity=".45"/><rect x="237" y="367.93341218680143" width="3" height="6" fill="#f1d3a3" opacity=".45"/><rect x="237" y="387.93341218680143" width="3" height="6" fill="#f1d3a3" opacity=".45"/><rect x="237" y="407.93341218680143" width="3" height="6" fill="#f1d3a3" opacity=".45"/><rect x="237" y="427.93341218680143" width="3" height="6" fill="#f1d3a3" opacity=".45"/><rect x="261" y="330.1135958265513" width="23.214343615574762" height="129.88640417344868" fill="#548780" opacity=".6"/><rect x="266" y="343.1135958265513" width="3" height="6" fill="#f1d3a3" opacity=".45"/><rect x="266" y="363.1135958265513" width="3" height="6" fill="#f1d3a3" opacity=".45"/><rect x="266" y="383.1135958265513" width="3" height="6" fill="#f1d3a3" opacity=".45"/><rect x="266" y="403.1135958265513" width="3" height="6" fill="#f1d3a3" opacity=".45"/><rect x="266" y="423.1135958265513" width="3" height="6" fill="#f1d3a3" opacity=".45"/><rect x="290" y="412.49678464606404" width="21.380864788079634" height="47.50321535393596" fill="#548780" opacity=".6"/><rect x="295" y="425.49678464606404" width="3" height="6" fill="#f1d3a3" opacity=".45"/><rect x="295" y="445.49678464606404" width="3" height="6" fill="#f1d3a3" opacity=".45"/><rect x="295" y="465.49678464606404" width="3" height="6" fill="#f1d3a3" opacity=".45"/><rect x="295" y="485.49678464606404" width="3" height="6" fill="#f1d3a3" opacity=".45"/><rect x="295" y="505.49678464606404" width="3" height="6" fill="#f1d3a3" opacity=".45"/><rect x="319" y="377.87365511991084" width="32.42984191677533" height="82.12634488008916" fill="#548780" opacity=".6"/><rect x="324" y="390.87365511991084" width="3" height="6" fill="#f1d3a3" opacity=".45"/><rect x="324" y="410.87365511991084" width="3" height="6" fill="#f1d3a3" opacity=".45"/><rect x="324" y="430.87365511991084" width="3" height="6" fill="#f1d3a3" opacity=".45"/><rect x="324" y="450.87365511991084" width="3" height="6" fill="#f1d3a3" opacity=".45"/><rect x="324" y="470.87365511991084" width="3" height="6" fill="#f1d3a3" opacity=".45"/><rect x="348" y="362.19336055219173" width="20.007571473019198" height="97.80663944780827" fill="#548780" opacity=".6"/><rect x="353" y="375.19336055219173" width="3" height="6" fill="#f1d3a3" opacity=".45"/><rect x="353" y="395.19336055219173" width="3" height="6" fill="#f1d3a3" opacity=".45"/><rect x="353" y="415.19336055219173" width="3" height="6" fill="#f1d3a3" opacity=".45"/><rect x="353" y="435.19336055219173" width="3" height="6" fill="#f1d3a3" opacity=".45"/><rect x="353" y="455.19336055219173" width="3" height="6" fill="#f1d3a3" opacity=".45"/><rect x="377" y="293.1339274998754" width="29.803275524405763" height="166.86607250012457" fill="#548780" opacity=".6"/><rect x="382" y="306.1339274998754" width="3" height="6" fill="#f1d3a3" opacity=".45"/><rect x="382" y="326.1339274998754" width="3" height="6" fill="#f1d3a3" opacity=".45"/><rect x="382" y="346.1339274998754" width="3" height="6" fill="#f1d3a3" opacity=".45"/><rect x="382" y="366.1339274998754" width="3" height="6" fill="#f1d3a3" opacity=".45"/><rect x="382" y="386.1339274998754" width="3" height="6" fill="#f1d3a3" opacity=".45"/><rect x="406" y="271.47581381723285" width="18.369244480738416" height="188.52418618276715" fill="#548780" opacity=".6"/><rect x="411" y="284.47581381723285" width="3" height="6" fill="#f1d3a3" opacity=".45"/><rect x="411" y="304.47581381723285" width="3" height="6" fill="#f1d3a3" opacity=".45"/><rect x="411" y="324.47581381723285" width="3" height="6" fill="#f1d3a3" opacity=".45"/><rect x="411" y="344.47581381723285" width="3" height="6" fill="#f1d3a3" opacity=".45"/><rect x="411" y="364.47581381723285" width="3" height="6" fill="#f1d3a3" opacity=".45"/><rect x="435" y="333.2722806651145" width="32.72691428824328" height="126.72771933488548" fill="#548780" opacity=".6"/><rect x="440" y="346.2722806651145" width="3" height="6" fill="#f1d3a3" opacity=".45"/><rect x="440" y="366.2722806651145" width="3" height="6" fill="#f1d3a3" opacity=".45"/><rect x="440" y="386.2722806651145" width="3" height="6" fill="#f1d3a3" opacity=".45"/><rect x="440" y="406.2722806651145" width="3" height="6" fill="#f1d3a3" opacity=".45"/><rect x="440" y="426.2722806651145" width="3" height="6" fill="#f1d3a3" opacity=".45"/><rect x="464" y="273.24382457882166" width="29.123990376712754" height="186.75617542117834" fill="#548780" opacity=".6"/><rect x="469" y="286.24382457882166" width="3" height="6" fill="#f1d3a3" opacity=".45"/><rect x="469" y="306.24382457882166" width="3" height="6" fill="#f1d3a3" opacity=".45"/><rect x="469" y="326.24382457882166" width="3" height="6" fill="#f1d3a3" opacity=".45"/><rect x="469" y="346.24382457882166" width="3" height="6" fill="#f1d3a3" opacity=".45"/><rect x="469" y="366.24382457882166" width="3" height="6" fill="#f1d3a3" opacity=".45"/><rect x="493" y="244.101259438321" width="25.771597851766273" height="215.898740561679" fill="#548780" opacity=".6"/><rect x="498" y="257.101259438321" width="3" height="6" fill="#f1d3a3" opacity=".45"/><rect x="498" y="277.101259438321" width="3" height="6" fill="#f1d3a3" opacity=".45"/><rect x="498" y="297.101259438321" width="3" height="6" fill="#f1d3a3" opacity=".45"/><rect x="498" y="317.101259438321" width="3" height="6" fill="#f1d3a3" opacity=".45"/><rect x="498" y="337.101259438321" width="3" height="6" fill="#f1d3a3" opacity=".45"/><rect x="522" y="359.3731319345534" width="32.78399211191572" height="100.62686806544662" fill="#548780" opacity=".6"/><rect x="527" y="372.3731319345534" width="3" height="6" fill="#f1d3a3" opacity=".45"/><rect x="527" y="392.3731319345534" width="3" height="6" fill="#f1d3a3" opacity=".45"/><rect x="527" y="412.3731319345534" width="3" height="6" fill="#f1d3a3" opacity=".45"/><rect x="527" y="432.3731319345534" width="3" height="6" fill="#f1d3a3" opacity=".45"/><rect x="527" y="452.3731319345534" width="3" height="6" fill="#f1d3a3" opacity=".45"/><rect x="551" y="382.52799787558615" width="25.05410625762306" height="77.47200212441385" fill="#548780" opacity=".6"/><rect x="556" y="395.52799787558615" width="3" height="6" fill="#f1d3a3" opacity=".45"/><rect x="556" y="415.52799787558615" width="3" height="6" fill="#f1d3a3" opacity=".45"/><rect x="556" y="435.52799787558615" width="3" height="6" fill="#f1d3a3" opacity=".45"/><rect x="556" y="455.52799787558615" width="3" height="6" fill="#f1d3a3" opacity=".45"/><rect x="556" y="475.52799787558615" width="3" height="6" fill="#f1d3a3" opacity=".45"/><rect x="580" y="356.4906804263592" width="34.11364134703763" height="103.50931957364082" fill="#548780" opacity=".6"/><rect x="585" y="369.4906804263592" width="3" height="6" fill="#f1d3a3" opacity=".45"/><rect x="585" y="389.4906804263592" width="3" height="6" fill="#f1d3a3" opacity=".45"/><rect x="585" y="409.4906804263592" width="3" height="6" fill="#f1d3a3" opacity=".45"/><rect x="585" y="429.4906804263592" width="3" height="6" fill="#f1d3a3" opacity=".45"/><rect x="585" y="449.4906804263592" width="3" height="6" fill="#f1d3a3" opacity=".45"/><rect x="609" y="378.80397512577474" width="32.33402274060063" height="81.19602487422526" fill="#548780" opacity=".6"/><rect x="614" y="391.80397512577474" width="3" height="6" fill="#f1d3a3" opacity=".45"/><rect x="614" y="411.80397512577474" width="3" height="6" fill="#f1d3a3" opacity=".45"/><rect x="614" y="431.80397512577474" width="3" height="6" fill="#f1d3a3" opacity=".45"/><rect x="614" y="451.80397512577474" width="3" height="6" fill="#f1d3a3" opacity=".45"/><rect x="614" y="471.80397512577474" width="3" height="6" fill="#f1d3a3" opacity=".45"/><rect x="638" y="252.43336027488112" width="26.811850464204326" height="207.56663972511888" fill="#548780" opacity=".6"/><rect x="643" y="265.4333602748811" width="3" height="6" fill="#f1d3a3" opacity=".45"/><rect x="643" y="285.4333602748811" width="3" height="6" fill="#f1d3a3" opacity=".45"/><rect x="643" y="305.4333602748811" width="3" height="6" fill="#f1d3a3" opacity=".45"/><rect x="643" y="325.4333602748811" width="3" height="6" fill="#f1d3a3" opacity=".45"/><rect x="643" y="345.4333602748811" width="3" height="6" fill="#f1d3a3" opacity=".45"/><path d="M0 463h600v337H0Z" fill="#548780" opacity=".55"/><g stroke="#f1d3a3" opacity=".3"><path d="M48.11886087991297 470h321.1795975640416"/><path d="M93.63711881451309 492h438.6124829482287"/><path d="M9.33319483883679 514h455.0290640629828"/><path d="M15.786552196368575 536h417.0123824570328"/><path d="M137.81978958286345 558h378.70351552963257"/><path d="M26.67156900279224 580h390.91195098124444"/><path d="M124.0182985085994 602h188.3079314790666"/><path d="M20.310390135273337 624h479.0302656311542"/><path d="M149.1467258427292 646h331.57044511288404"/><path d="M43.98127677850425 668h452.91500153951347"/></g><path d="M-30 641 640 520M-30 657 640 536M61 625v175M474 548v252" fill="none" stroke="#203e3d" stroke-width="8"/><g transform="translate(-6.040341581683606 14.892858695238829)"><path d="M185 800q-18-143 20-231l49-37h90l65 41 40 227" fill="url(#c)"/><path d="m253 490-5 57 43 43 51-54-17-55Z" fill="url(#skin)"/><path d="m248 527-35 38 51 39 29-34 26 35 48-46-26-32-46 40Z" fill="#e1e1d8"/><path d="m289 578 16 2-9 21 29 125-32 19-20-21 16-124-9-16Z" fill="#b59886"/><path d="m222 583-18 50 34 16-27 20 46 131M362 580l23 50-30 18 30 23-47 129" fill="none" stroke="#203e3d" stroke-width="3"/><path d="M219 308q-61 59-35 136t-8 139q64-32 89-100l89 35q55-131 11-195-64-53-146-15" fill="url(#h)"/><path d="M227 350q-8 66 8 111 18 43 61 60 43-18 60-70 16-49-11-100-67-42-118-1Z" fill="url(#skin)" stroke="#203e3d" stroke-width="1.2"/><path d="M233 412q17-12 34-5M307 406q18-11 33-2" fill="none" stroke="#203e3d" stroke-width="2"/><path d="M233 426q17-17 36-7-12 22-34 8M306 421q18-17 36-5-12 20-33 10" fill="#faf4e5"/><path d="M231 425q18-17 38-6M306 421q18-17 36-5" fill="none" stroke="#203e3d" stroke-width="3"/><ellipse cx="253" cy="424" rx="7" ry="9" fill="#548780"/><ellipse cx="326" cy="420" rx="7" ry="9" fill="#548780"/><ellipse cx="253" cy="424" rx="3" ry="7" fill="#203e3d"/><ellipse cx="326" cy="420" rx="3" ry="7" fill="#203e3d"/><circle cx="255" cy="420" r="2.5" fill="white"/><circle cx="328" cy="416" r="2.5" fill="white"/><path d="m286 426-4 30 7 3M279 479q11 4 19-1" fill="none" stroke="#ab7b76" stroke-width="1.5"/><path d="M215 415q-27-69 14-108 49-40 96-15 68 19 51 123-19-23-35-73-8 39-29 56l-13-39q-10 36-23 53l-7-59q-10 50-30 74l-2-54-22 42Z" fill="url(#h)"/><path d="M219 308q-34 130 4 234l-41 51q22-110 0-200M349 306q69 81 22 237l40 45q-13-60 0-128t-32-122" fill="url(#h)"/><g fill="none" stroke="#7c919a" opacity=".5" stroke-width="1.4"><path d="M215 332q-17 75 2 163M245 317q-13 27-9 78M269 305q-6 30 5 64M311 313l9 47M358 340q24 40 14 144"/></g><path d="M205 613q-42 17-29 77" stroke="#baa58b" stroke-width="9" fill="none"/><path d="m222 640-65 160h62l45-157" fill="#203e3d"/></g><ellipse cx="332.5265262275934" cy="76.94635819643736" rx="1.785820644814521" ry="2.7156599019654095" fill="#f1d3a3" opacity=".5" transform="rotate(22.232961081899703)"/><ellipse cx="133.83819689042866" cy="221.7597659677267" rx="1.39563630358316" ry="2.079424649477005" fill="#f1d3a3" opacity=".5" transform="rotate(31.269116505282)"/><ellipse cx="247.08571834489703" cy="395.95843125134706" rx="4.103956417180598" ry="2.6942589594982564" fill="#f1d3a3" opacity=".5" transform="rotate(15.16715866746381)"/><ellipse cx="480.74295851401985" cy="286.2151101231575" rx="3.468950793845579" ry="1.600186270661652" fill="#f1d3a3" opacity=".5" transform="rotate(26.675408062292263)"/><ellipse cx="289.1531327739358" cy="213.2950922474265" rx="1.014234536793083" ry="2.9690781482495368" fill="#f1d3a3" opacity=".5" transform="rotate(4.844892602413893)"/><ellipse cx="567.795634875074" cy="494.374955072999" rx="3.8809203871060163" ry="1.075075002387166" fill="#f1d3a3" opacity=".5" transform="rotate(12.083477756241336)"/><ellipse cx="326.99291417375207" cy="562.8077978268266" rx="4.990825479850173" ry="2.984874989371747" fill="#f1d3a3" opacity=".5" transform="rotate(8.991849168669432)"/><ellipse cx="188.56900348328054" cy="749.551721662283" rx="4.552214311202988" ry="1.2826780071482062" fill="#f1d3a3" opacity=".5" transform="rotate(18.934725489234552)"/><ellipse cx="123.55452328920364" cy="179.3583272024989" rx="2.302756986115128" ry="2.101061258930713" fill="#f1d3a3" opacity=".5" transform="rotate(8.122757836245)"/><ellipse cx="115.71008157916367" cy="86.90845482051373" rx="5.278840586775914" ry="2.3232172168791294" fill="#f1d3a3" opacity=".5" transform="rotate(10.676079374970868)"/><ellipse cx="416.2971845827997" cy="283.7446244433522" rx="2.311599682085216" ry="1.6564651033841074" fill="#f1d3a3" opacity=".5" transform="rotate(18.346061597112566)"/><ellipse cx="367.58250589482486" cy="549.6871560811996" rx="2.2645652319770306" ry="1.6492385724559426" fill="#f1d3a3" opacity=".5" transform="rotate(5.371680537937209)"/><ellipse cx="511.0249539837241" cy="737.5607227906585" rx="3.818484369199723" ry="2.5499928132630885" fill="#f1d3a3" opacity=".5" transform="rotate(4.543572040274739)"/><ellipse cx="471.6465833131224" cy="94.30674500763416" rx="1.7724263158161193" ry="2.6374694760888815" fill="#f1d3a3" opacity=".5" transform="rotate(23.656898845219985)"/><ellipse cx="391.0751801915467" cy="207.93215725570917" rx="3.893190234899521" ry="2.4624343956820667" fill="#f1d3a3" opacity=".5" transform="rotate(18.980651160236448)"/><ellipse cx="199.45494211278856" cy="638.8814307749271" rx="5.390093836700544" ry="1.8495495347306132" fill="#f1d3a3" opacity=".5" transform="rotate(15.950084844371304)"/><ellipse cx="55.50782047212124" cy="395.3495217487216" rx="4.447144806850702" ry="2.955985211301595" fill="#f1d3a3" opacity=".5" transform="rotate(13.229610328562558)"/><ellipse cx="92.47765098698437" cy="404.8665251582861" rx="2.5102717152331024" ry="1.4828552976250648" fill="#f1d3a3" opacity=".5" transform="rotate(20.762267868267372)"/><ellipse cx="123.1852593831718" cy="647.3540769889951" rx="3.711590533144772" ry="1.5650090663693845" fill="#f1d3a3" opacity=".5" transform="rotate(3.2958527957089245)"/><ellipse cx="559.4941105227917" cy="367.94497817754745" rx="2.2728460028301924" ry="1.0692803161218762" fill="#f1d3a3" opacity=".5" transform="rotate(22.580752455396578)"/><ellipse cx="261.3119663670659" cy="56.610565446317196" rx="2.814399433787912" ry="2.7591462754644454" fill="#f1d3a3" opacity=".5" transform="rotate(24.96030952781439)"/><ellipse cx="42.49995932914317" cy="781.9241676479578" rx="4.212553720222786" ry="1.8645974788814783" fill="#f1d3a3" opacity=".5" transform="rotate(10.336744921514764)"/><ellipse cx="404.6205156482756" cy="673.9336395636201" rx="3.3765563312917948" ry="2.443073335569352" fill="#f1d3a3" opacity=".5" transform="rotate(2.0304291206412017)"/><ellipse cx="56.47567450068891" cy="418.3187238872051" rx="4.51707955240272" ry="2.208921200595796" fill="#f1d3a3" opacity=".5" transform="rotate(0.5872591061051935)"/><ellipse cx="12.445179373025894" cy="605.1155595108867" rx="4.534682730678469" ry="2.5810489770956337" fill="#f1d3a3" opacity=".5" transform="rotate(0.362880970351398)"/><ellipse cx="46.449483605101705" cy="624.4514208287001" rx="5.938182939076796" ry="1.054802667349577" fill="#f1d3a3" opacity=".5" transform="rotate(15.435105004580691)"/><ellipse cx="452.9164924286306" cy="754.9340667203069" rx="3.601637481711805" ry="1.723834482487291" fill="#f1d3a3" opacity=".5" transform="rotate(18.621716818306595)"/><ellipse cx="110.56064288131893" cy="394.3104147911072" rx="4.325215912191197" ry="1.4786319667473435" fill="#f1d3a3" opacity=".5" transform="rotate(23.565256184665486)"/><ellipse cx="193.93987488001585" cy="682.5005894526839" rx="2.765706918668002" ry="2.7956542880274355" fill="#f1d3a3" opacity=".5" transform="rotate(33.70350922457874)"/><ellipse cx="547.7900738362223" cy="19.057362154126167" rx="1.2787123445887119" ry="2.938286555930972" fill="#f1d3a3" opacity=".5" transform="rotate(15.77882157289423)"/><ellipse cx="106.98858546093106" cy="689.1401866450906" rx="1.3626862354576588" ry="1.5945660094730556" fill="#f1d3a3" opacity=".5" transform="rotate(8.03344646235928)"/><ellipse cx="441.17378792725503" cy="187.98719719052315" rx="5.864112086361274" ry="1.9403561456128955" fill="#f1d3a3" opacity=".5" transform="rotate(13.744714384665713)"/><ellipse cx="239.5459670573473" cy="523.2758862897754" rx="3.3967554164119065" ry="1.1959371571429074" fill="#f1d3a3" opacity=".5" transform="rotate(13.451011762954295)"/><ellipse cx="319.1504665184766" cy="95.89660130441189" rx="1.4946287779603153" ry="2.2587897032499313" fill="#f1d3a3" opacity=".5" transform="rotate(24.551415658788756)"/><ellipse cx="572.7741326205432" cy="6.321324594318867" rx="4.6979671055451035" ry="2.95067893108353" fill="#f1d3a3" opacity=".5" transform="rotate(5.598210778553039)"/><ellipse cx="86.71800079755485" cy="29.224444925785065" rx="2.300277941627428" ry="1.5284509034827352" fill="#f1d3a3" opacity=".5" transform="rotate(3.7144720449578017)"/><ellipse cx="340.16592744737864" cy="309.3668421730399" rx="2.448890359606594" ry="1.1624656119383872" fill="#f1d3a3" opacity=".5" transform="rotate(9.534834567457438)"/><ellipse cx="321.7847338411957" cy="100.98373331129551" rx="4.359652265207842" ry="1.5468339789658785" fill="#f1d3a3" opacity=".5" transform="rotate(22.767047180095688)"/><text x="26" y="40" fill="#203e3d" opacity=".55" font-family="monospace" font-size="9" letter-spacing="3">COMFYCOMIC / ORIGINAL FRAME</text><text x="570" y="775" text-anchor="end" fill="#f1d3a3" font-family="monospace" font-size="10">11 / CC</text></g></svg>