<svg xmlns="http://www.w3.org/2000/svg" width="600" height="800" viewBox="0 0 600 800" data-comfy-art="local-svg"><defs><linearGradient id="s" x2=".3" y2="1"><stop stop-color="#90bed5"/><stop offset=".6" stop-color="#f4d6be"/><stop offset="1" stop-color="#6b9f9f"/></linearGradient><linearGradient id="h" x2="1" y2="1"><stop stop-color="#566976"/><stop offset=".5" stop-color="#233b52"/></linearGradient><linearGradient id="c" x2="1" y2=".4"><stop stop-color="#233b52"/><stop offset=".5" stop-color="#6b9f9f"/><stop offset="1" stop-color="#233b52"/></linearGradient><linearGradient id="skin"><stop stop-color="#fbe3ce"/><stop offset="1" stop-color="#d2aa99"/></linearGradient><filter id="grain"><feTurbulence baseFrequency=".7" numOctaves="2" stitchTiles="stitch"/><feComponentTransfer><feFuncA type="linear" slope=".035"/></feComponentTransfer><feBlend in="SourceGraphic" mode="soft-light"/></filter></defs><g filter="url(#grain)"><path fill="url(#s)" d="M0 0h600v800H0Z"/><circle cx="469.0220901882276" cy="155" r="46" fill="#f4d6be" opacity=".85"/><path d="M-0.897075841203332 216.896272378508q70-32 112-5q35-62 83-23q66-27 106 25q-130 19-301 3Z" fill="#f4d6be" opacity=".3"/><path d="M24.17662711814046 78.02209033397958q70-32 112-5q35-62 83-23q66-27 106 25q-130 19-301 3Z" fill="#f4d6be" opacity=".3"/><path d="M389.30581477470696 106.81885504396632q70-32 112-5q35-62 83-23q66-27 106 25q-130 19-301 3Z" fill="#f4d6be" opacity=".3"/><path d="M-88.4359322488308 209.84280235832557q70-32 112-5q35-62 83-23q66-27 106 25q-130 19-301 3Z" fill="#f4d6be" opacity=".3"/><path d="M157.41983647458255 103.0332767427899q70-32 112-5q35-62 83-23q66-27 106 25q-130 19-301 3Z" fill="#f4d6be" opacity=".3"/><path d="M251.54820112511516 157.79909983975813q70-32 112-5q35-62 83-23q66-27 106 25q-130 19-301 3Z" fill="#f4d6be" opacity=".3"/><path d="M0.5886154714971781 155.767200991977q70-32 112-5q35-62 83-23q66-27 106 25q-130 19-301 3Z" fill="#f4d6be" opacity=".3"/><path d="M50.58642756193876 301.04726949473843q70-32 112-5q35-62 83-23q66-27 106 25q-130 19-301 3Z" fill="#f4d6be" opacity=".3"/><path d="M-42.69481101073325 40.047828967217356q70-32 112-5q35-62 83-23q66-27 106 25q-130 19-301 3Z" fill="#f4d6be" opacity=".3"/><path d="m0 423 75-100 77 24 103-144 139 178 95-60 111 99v120H0Z" fill="#6b9f9f" opacity=".28"/><rect x="0" y="330.16333060339093" width="24.820960503304377" height="129.83666939660907" fill="#6b9f9f" opacity=".6"/><rect x="5" y="343.16333060339093" width="3" height="6" fill="#f4d6be" opacity=".45"/><rect x="5" y="363.16333060339093" width="3" height="6" fill="#f4d6be" opacity=".45"/><rect x="5" y="383.16333060339093" width="3" height="6" fill="#f4d6be" opacity=".45"/><rect x="5" y="403.16333060339093" width="3" height="6" fill="#f4d6be" opacity=".45"/><rect x="5" y="423.16333060339093" width="3" height="6" fill="#f4d6be" opacity=".45"/><rect x="29" y="374.8384338710457" width="28.38170901290141" height="85.16156612895429" fill="#6b9f9f" opacity=".6"/><rect x="34" y="387.8384338710457" width="3" height="6" fill="#f4d6be" opacity=".45"/><rect x="34" y="407.8384338710457" width="3" height="6" fill="#f4d6be" opacity=".45"/><rect x="34" y="427.8384338710457" width="3" height="6" fill="#f4d6be" opacity=".45"/><rect x="34" y="447.8384338710457" width="3" height="6" fill="#f4d6be" opacity=".45"/><rect x="34" y="467.8384338710457" width="3" height="6" fill="#f4d6be" opacity=".45"/><rect x="58" y="375.6632412225008" width="22.844614929752424" height="84.3367587774992" fill="#6b9f9f" opacity=".6"/><rect x="63" y="388.6632412225008" width="3" height="6" fill="#f4d6be" opacity=".45"/><rect x="63" y="408.6632412225008" width="3" height="6" fill="#f4d6be" opacity=".45"/><rect x="63" y="428.6632412225008" width="3" height="6" fill="#f4d6be" opacity=".45"/><rect x="63" y="448.6632412225008" width="3" height="6" fill="#f4d6be" opacity=".45"/><rect x="63" y="468.6632412225008" width="3" height="6" fill="#f4d6be" opacity=".45"/><rect x="87" y="352.25143290124834" width="31.31501894327812" height="107.74856709875166" fill="#6b9f9f" opacity=".6"/><rect x="92" y="365.25143290124834" width="3" height="6" fill="#f4d6be" opacity=".45"/><rect x="92" y="385.25143290124834" width="3" height="6" fill="#f4d6be" opacity=".45"/><rect x="92" y="405.25143290124834" width="3" height="6" fill="#f4d6be" opacity=".45"/><rect x="92" y="425.25143290124834" width="3" height="6" fill="#f4d6be" opacity=".45"/><rect x="92" y="445.25143290124834" width="3" height="6" fill="#f4d6be" opacity=".45"/><rect x="116" y="331.0245647840202" width="22.09503980190493" height="128.97543521597981" fill="#6b9f9f" opacity=".6"/><rect x="121" y="344.0245647840202" width="3" height="6" fill="#f4d6be" opacity=".45"/><rect x="121" y="364.0245647840202" width="3" height="6" fill="#f4d6be" opacity=".45"/><rect x="121" y="384.0245647840202" width="3" height="6" fill="#f4d6be" opacity=".45"/><rect x="121" y="404.0245647840202" width="3" height="6" fill="#f4d6be" opacity=".45"/><rect x="121" y="424.0245647840202" width="3" height="6" fill="#f4d6be" opacity=".45"/><rect x="145" y="300.5220888275653" width="29.884133929153904" height="159.4779111724347" fill="#6b9f9f" opacity=".6"/><rect x="150" y="313.5220888275653" width="3" height="6" fill="#f4d6be" opacity=".45"/><rect x="150" y="333.5220888275653" width="3" height="6" fill="#f4d6be" opacity=".45"/><rect x="150" y="353.5220888275653" width="3" height="6" fill="#f4d6be" opacity=".45"/><rect x="150" y="373.5220888275653" width="3" height="6" fill="#f4d6be" opacity=".45"/><rect x="150" y="393.5220888275653" width="3" height="6" fill="#f4d6be" opacity=".45"/><rect x="174" y="320.39637107402086" width="36.25374866765924" height="139.60362892597914" fill="#6b9f9f" opacity=".6"/><rect x="179" y="333.39637107402086" width="3" height="6" fill="#f4d6be" opacity=".45"/><rect x="179" y="353.39637107402086" width="3" height="6" fill="#f4d6be" opacity=".45"/><rect x="179" y="373.39637107402086" width="3" height="6" fill="#f4d6be" opacity=".45"/><rect x="179" y="393.39637107402086" width="3" height="6" fill="#f4d6be" opacity=".45"/><rect x="179" y="413.39637107402086" width="3" height="6" fill="#f4d6be" opacity=".45"/><rect x="203" y="292.234797058627" width="21.896923643304035" height="167.765202941373" fill="#6b9f9f" opacity=".6"/><rect x="208" y="305.234797058627" width="3" height="6" fill="#f4d6be" opacity=".45"/><rect x="208" y="325.234797058627" width="3" height="6" fill="#f4d6be" opacity=".45"/><rect x="208" y="345.234797058627" width="3" height="6" fill="#f4d6be" opacity=".45"/><rect x="208" y="365.234797058627" width="3" height="6" fill="#f4d6be" opacity=".45"/><rect x="208" y="385.234797058627" width="3" height="6" fill="#f4d6be" opacity=".45"/><rect x="232" y="350.72214821353555" width="28.42224942916073" height="109.27785178646445" fill="#6b9f9f" opacity=".6"/><rect x="237" y="363.72214821353555" width="3" height="6" fill="#f4d6be" opacity=".45"/><rect x="237" y="383.72214821353555" width="3" height="6" fill="#f4d6be" opacity=".45"/><rect x="237" y="403.72214821353555" width="3" height="6" fill="#f4d6be" opacity=".45"/><rect x="237" y="423.72214821353555" width="3" height="6" fill="#f4d6be" opacity=".45"/><rect x="237" y="443.72214821353555" width="3" height="6" fill="#f4d6be" opacity=".45"/><rect x="261" y="266.37127661146224" width="27.8473348764237" height="193.62872338853776" fill="#6b9f9f" opacity=".6"/><rect x="266" y="279.37127661146224" width="3" height="6" fill="#f4d6be" opacity=".45"/><rect x="266" y="299.37127661146224" width="3" height="6" fill="#f4d6be" opacity=".45"/><rect x="266" y="319.37127661146224" width="3" height="6" fill="#f4d6be" opacity=".45"/><rect x="266" y="339.37127661146224" width="3" height="6" fill="#f4d6be" opacity=".45"/><rect x="266" y="359.37127661146224" width="3" height="6" fill="#f4d6be" opacity=".45"/><rect x="290" y="319.8586991429329" width="18.137364167021587" height="140.1413008570671" fill="#6b9f9f" opacity=".6"/><rect x="295" y="332.8586991429329" width="3" height="6" fill="#f4d6be" opacity=".45"/><rect x="295" y="352.8586991429329" width="3" height="6" fill="#f4d6be" opacity=".45"/><rect x="295" y="372.8586991429329" width="3" height="6" fill="#f4d6be" opacity=".45"/><rect x="295" y="392.8586991429329" width="3" height="6" fill="#f4d6be" opacity=".45"/><rect x="295" y="412.8586991429329" width="3" height="6" fill="#f4d6be" opacity=".45"/><rect x="319" y="376.65407597087324" width="30.316941830096766" height="83.34592402912676" fill="#6b9f9f" opacity=".6"/><rect x="324" y="389.65407597087324" width="3" height="6" fill="#f4d6be" opacity=".45"/><rect x="324" y="409.65407597087324" width="3" height="6" fill="#f4d6be" opacity=".45"/><rect x="324" y="429.65407597087324" width="3" height="6" fill="#f4d6be" opacity=".45"/><rect x="324" y="449.65407597087324" width="3" height="6" fill="#f4d6be" opacity=".45"/><rect x="324" y="469.65407597087324" width="3" height="6" fill="#f4d6be" opacity=".45"/><rect x="348" y="352.8786318562925" width="32.54572865203954" height="107.12136814370751" fill="#6b9f9f" opacity=".6"/><rect x="353" y="365.8786318562925" width="3" height="6" fill="#f4d6be" opacity=".45"/><rect x="353" y="385.8786318562925" width="3" height="6" fill="#f4d6be" opacity=".45"/><rect x="353" y="405.8786318562925" width="3" height="6" fill="#f4d6be" opacity=".45"/><rect x="353" y="425.8786318562925" width="3" height="6" fill="#f4d6be" opacity=".45"/><rect x="353" y="445.8786318562925" width="3" height="6" fill="#f4d6be" opacity=".45"/><rect x="377" y="282.9174226988107" width="24.277863597264513" height="177.0825773011893" fill="#6b9f9f" opacity=".6"/><rect x="382" y="295.9174226988107" width="3" height="6" fill="#f4d6be" opacity=".45"/><rect x="382" y="315.9174226988107" width="3" height="6" fill="#f4d6be" opacity=".45"/><rect x="382" y="335.9174226988107" width="3" height="6" fill="#f4d6be" opacity=".45"/><rect x="382" y="355.9174226988107" width="3" height="6" fill="#f4d6be" opacity=".45"/><rect x="382" y="375.9174226988107" width="3" height="6" fill="#f4d6be" opacity=".45"/><rect x="406" y="349.99394338577986" width="27.90934654441662" height="110.00605661422014" fill="#6b9f9f" opacity=".6"/><rect x="411" y="362.99394338577986" width="3" height="6" fill="#f4d6be" opacity=".45"/><rect x="411" y="382.99394338577986" width="3" height="6" fill="#f4d6be" opacity=".45"/><rect x="411" y="402.99394338577986" width="3" height="6" fill="#f4d6be" opacity=".45"/><rect x="411" y="422.99394338577986" width="3" height="6" fill="#f4d6be" opacity=".45"/><rect x="411" y="442.99394338577986" width="3" height="6" fill="#f4d6be" opacity=".45"/><rect x="435" y="386.44291679374874" width="31.3439238301944" height="73.55708320625126" fill="#6b9f9f" opacity=".6"/><rect x="440" y="399.44291679374874" width="3" height="6" fill="#f4d6be" opacity=".45"/><rect x="440" y="419.44291679374874" width="3" height="6" fill="#f4d6be" opacity=".45"/><rect x="440" y="439.44291679374874" width="3" height="6" fill="#f4d6be" opacity=".45"/><rect x="440" y="459.44291679374874" width="3" height="6" fill="#f4d6be" opacity=".45"/><rect x="440" y="479.44291679374874" width="3" height="6" fill="#f4d6be" opacity=".45"/><rect x="464" y="284.53819753602147" width="26.364073280477896" height="175.46180246397853" fill="#6b9f9f" opacity=".6"/><rect x="469" y="297.53819753602147" width="3" height="6" fill="#f4d6be" opacity=".45"/><rect x="469" y="317.53819753602147" width="3" height="6" fill="#f4d6be" opacity=".45"/><rect x="469" y="337.53819753602147" width="3" height="6" fill="#f4d6be" opacity=".45"/><rect x="469" y="357.53819753602147" width="3" height="6" fill="#f4d6be" opacity=".45"/><rect x="469" y="377.53819753602147" width="3" height="6" fill="#f4d6be" opacity=".45"/><rect x="493" y="405.1975678000599" width="30.7669275959488" height="54.802432199940085" fill="#6b9f9f" opacity=".6"/><rect x="498" y="418.1975678000599" width="3" height="6" fill="#f4d6be" opacity=".45"/><rect x="498" y="438.1975678000599" width="3" height="6" fill="#f4d6be" opacity=".45"/><rect x="498" y="458.1975678000599" width="3" height="6" fill="#f4d6be" opacity=".45"/><rect x="498" y="478.1975678000599" width="3" height="6" fill="#f4d6be" opacity=".45"/><rect x="498" y="498.1975678000599" width="3" height="6" fill="#f4d6be" opacity=".45"/><rect x="522" y="404.44479636847973" width="33.60290464689024" height="55.55520363152027" fill="#6b9f9f" opacity=".6"/><rect x="527" y="417.44479636847973" width="3" height="6" fill="#f4d6be" opacity=".45"/><rect x="527" y="437.44479636847973" width="3" height="6" fill="#f4d6be" opacity=".45"/><rect x="527" y="457.44479636847973" width="3" height="6" fill="#f4d6be" opacity=".45"/><rect x="527" y="477.44479636847973" width="3" height="6" fill="#f4d6be" opacity=".45"/><rect x="527" y="497.44479636847973" width="3" height="6" fill="#f4d6be" opacity=".45"/><rect x="551" y="359.9116756673902" width="30.72493041935377" height="100.08832433260977" fill="#6b9f9f" opacity=".6"/><rect x="556" y="372.9116756673902" width="3" height="6" fill="#f4d6be" opacity=".45"/><rect x="556" y="392.9116756673902" width="3" height="6" fill="#f4d6be" opacity=".45"/><rect x="556" y="412.9116756673902" width="3" height="6" fill="#f4d6be" opacity=".45"/><rect x="556" y="432.9116756673902" width="3" height="6" fill="#f4d6be" opacity=".45"/><rect x="556" y="452.9116756673902" width="3" height="6" fill="#f4d6be" opacity=".45"/><rect x="580" y="265.65884543582797" width="29.905945042381063" height="194.34115456417203" fill="#6b9f9f" opacity=".6"/><rect x="585" y="278.65884543582797" width="3" height="6" fill="#f4d6be" opacity=".45"/><rect x="585" y="298.65884543582797" width="3" height="6" fill="#f4d6be" opacity=".45"/><rect x="585" y="318.65884543582797" width="3" height="6" fill="#f4d6be" opacity=".45"/><rect x="585" y="338.65884543582797" width="3" height="6" fill="#f4d6be" opacity=".45"/><rect x="585" y="358.65884543582797" width="3" height="6" fill="#f4d6be" opacity=".45"/><rect x="609" y="356.9340553600341" width="33.199374513467774" height="103.06594463996589" fill="#6b9f9f" opacity=".6"/><rect x="614" y="369.9340553600341" width="3" height="6" fill="#f4d6be" opacity=".45"/><rect x="614" y="389.9340553600341" width="3" height="6" fill="#f4d6be" opacity=".45"/><rect x="614" y="409.9340553600341" width="3" height="6" fill="#f4d6be" opacity=".45"/><rect x="614" y="429.9340553600341" width="3" height="6" fill="#f4d6be" opacity=".45"/><rect x="614" y="449.9340553600341" width="3" height="6" fill="#f4d6be" opacity=".45"/><rect x="638" y="340.9201127663255" width="27.688930426957086" height="119.07988723367453" fill="#6b9f9f" opacity=".6"/><rect x="643" y="353.9201127663255" width="3" height="6" fill="#f4d6be" opacity=".45"/><rect x="643" y="373.9201127663255" width="3" height="6" fill="#f4d6be" opacity=".45"/><rect x="643" y="393.9201127663255" width="3" height="6" fill="#f4d6be" opacity=".45"/><rect x="643" y="413.9201127663255" width="3" height="6" fill="#f4d6be" opacity=".45"/><rect x="643" y="433.9201127663255" width="3" height="6" fill="#f4d6be" opacity=".45"/><path d="M0 463h600v337H0Z" fill="#6b9f9f" opacity=".55"/><g stroke="#f4d6be" opacity=".3"><path d="M131.98662181384861 470h298.332436401397"/><path d="M179.68095145188272 492h304.39355948008597"/><path d="M106.94265463389456 514h434.12711687386036"/><path d="M73.3565695118159 536h316.6203749086708"/><path d="M0.24349805898964405 558h413.73035145923495"/><path d="M122.72204994224012 580h431.09055270440876"/><path d="M48.70713190175593 602h308.91354728490114"/><path d="M62.07652795128524 624h449.85256145708263"/><path d="M137.1198282111436 646h223.90012258663774"/><path d="M81.57927668653429 668h469.11037207581103"/></g><path d="M-30 641 640 520M-30 657 640 536M61 625v175M474 548v252" fill="none" stroke="#233b52" stroke-width="8"/><g transform="translate(-22.850019799079746 3.0389341711997986)"><path d="M185 800q-18-143 20-231l49-37h90l65 41 40 227" fill="url(#c)"/><path d="m253 490-5 57 43 43 51-54-17-55Z" fill="url(#skin)"/><path d="m248 527-35 38 51 39 29-34 26 35 48-46-26-32-46 40Z" fill="#e1e1d8"/><path d="m289 578 16 2-9 21 29 125-32 19-20-21 16-124-9-16Z" fill="#b59886"/><path d="m222 583-18 50 34 16-27 20 46 131M362 580l23 50-30 18 30 23-47 129" fill="none" stroke="#233b52" stroke-width="3"/><path d="M219 308q-61 59-35 136t-8 139q64-32 89-100l89 35q55-131 11-195-64-53-146-15" fill="url(#h)"/><path d="M227 350q-8 66 8 111 18 43 61 60 43-18 60-70 16-49-11-100-67-42-118-1Z" fill="url(#skin)" stroke="#233b52" stroke-width="1.2"/><path d="M233 412q17-12 34-5M307 406q18-11 33-2" fill="none" stroke="#233b52" stroke-width="2"/><path d="M233 426q17-17 36-7-12 22-34 8M306 421q18-17 36-5-12 20-33 10" fill="#faf4e5"/><path d="M231 425q18-17 38-6M306 421q18-17 36-5" fill="none" stroke="#233b52" stroke-width="3"/><ellipse cx="253" cy="424" rx="7" ry="9" fill="#6b9f9f"/><ellipse cx="326" cy="420" rx="7" ry="9" fill="#6b9f9f"/><ellipse cx="253" cy="424" rx="3" ry="7" fill="#233b52"/><ellipse cx="326" cy="420" rx="3" ry="7" fill="#233b52"/><circle cx="255" cy="420" r="2.5" fill="white"/><circle cx="328" cy="416" r="2.5" fill="white"/><path d="m286 426-4 30 7 3M279 479q11 4 19-1" fill="none" stroke="#ab7b76" stroke-width="1.5"/><path d="M215 415q-27-69 14-108 49-40 96-15 68 19 51 123-19-23-35-73-8 39-29 56l-13-39q-10 36-23 53l-7-59q-10 50-30 74l-2-54-22 42Z" fill="url(#h)"/><path d="M219 308q-34 130 4 234l-41 51q22-110 0-200M349 306q69 81 22 237l40 45q-13-60 0-128t-32-122" fill="url(#h)"/><g fill="none" stroke="#7c919a" opacity=".5" stroke-width="1.4"><path d="M215 332q-17 75 2 163M245 317q-13 27-9 78M269 305q-6 30 5 64M311 313l9 47M358 340q24 40 14 144"/></g><path d="M205 613q-42 17-29 77" stroke="#baa58b" stroke-width="9" fill="none"/><path d="m222 640-65 160h62l45-157" fill="#233b52"/></g><ellipse cx="55.29834274202585" cy="287.45793905109167" rx="2.967833728995174" ry="2.847238222602755" fill="#f4d6be" opacity=".5" transform="rotate(11.805741433054209)"/><ellipse cx="0.36400468088686466" cy="48.709649220108986" rx="2.360765501158312" ry="2.7504621613770723" fill="#f4d6be" opacity=".5" transform="rotate(8.772787047782913)"/><ellipse cx="113.53868404403329" cy="159.5989042893052" rx="4.468853337690234" ry="2.7129034805111587" fill="#f4d6be" opacity=".5" transform="rotate(19.915591187309474)"/><ellipse cx="46.00174888037145" cy="536.9278453290462" rx="3.566254431148991" ry="1.3349392553791404" fill="#f4d6be" opacity=".5" transform="rotate(21.633428413188085)"/><ellipse cx="440.43155908584595" cy="110.03753524273634" rx="3.6075268373824656" ry="2.9157335651107132" fill="#f4d6be" opacity=".5" transform="rotate(15.480532473884523)"/><ellipse cx="112.7738003153354" cy="202.1475564688444" rx="5.064285509521142" ry="1.4072302170097828" fill="#f4d6be" opacity=".5" transform="rotate(23.609322701813653)"/><ellipse cx="19.416264351457357" cy="798.7471910193563" rx="3.856161701492965" ry="2.494606976862997" fill="#f4d6be" opacity=".5" transform="rotate(20.130229445639998)"/><ellipse cx="487.377993715927" cy="262.1743828058243" rx="1.0212140183430165" ry="1.977688909508288" fill="#f4d6be" opacity=".5" transform="rotate(1.824116500793025)"/><ellipse cx="184.81476958841085" cy="727.9865777119994" rx="1.2945027756504714" ry="2.365191786084324" fill="#f4d6be" opacity=".5" transform="rotate(5.772689217701554)"/><ellipse cx="579.1281210724264" cy="236.4918190985918" rx="3.087746636243537" ry="2.0600132551044226" fill="#f4d6be" opacity=".5" transform="rotate(18.12280110665597)"/><ellipse cx="493.2760384865105" cy="586.1367234960198" rx="2.3658224418759346" ry="1.7121613617055118" fill="#f4d6be" opacity=".5" transform="rotate(15.097754222806543)"/><ellipse cx="44.74450475536287" cy="651.2249387800694" rx="3.375482957577333" ry="1.7801205096766353" fill="#f4d6be" opacity=".5" transform="rotate(9.861345322569832)"/><ellipse cx="412.8930788487196" cy="524.9485982581973" rx="5.08981315093115" ry="1.966157414484769" fill="#f4d6be" opacity=".5" transform="rotate(28.743421104736626)"/><ellipse cx="450.4584134090692" cy="576.2940194457769" rx="5.947327250847593" ry="1.4290227815508842" fill="#f4d6be" opacity=".5" transform="rotate(28.307946297572926)"/><ellipse cx="301.2573706917465" cy="755.4552840068936" rx="5.971662205643952" ry="1.8852757452987134" fill="#f4d6be" opacity=".5" transform="rotate(1.4363875170238316)"/><ellipse cx="449.04262530617416" cy="23.371390998363495" rx="1.33409955794923" ry="2.2988141225650907" fill="#f4d6be" opacity=".5" transform="rotate(18.366225556237623)"/><ellipse cx="340.3950082138181" cy="723.5838523134589" rx="3.503915240522474" ry="1.278428214136511" fill="#f4d6be" opacity=".5" transform="rotate(20.917251631617546)"/><ellipse cx="540.5913813505322" cy="280.9110376983881" rx="3.711745548294857" ry="2.7756461445242167" fill="#f4d6be" opacity=".5" transform="rotate(32.73987705470063)"/><ellipse cx="379.1460790671408" cy="358.5333550348878" rx="5.510273905470967" ry="2.9411375704221427" fill="#f4d6be" opacity=".5" transform="rotate(8.514500099699944)"/><ellipse cx="369.27140741609037" cy="41.42673537135124" rx="1.1596773543860763" ry="2.2514597391709685" fill="#f4d6be" opacity=".5" transform="rotate(8.653391286497936)"/><ellipse cx="589.6034918725491" cy="125.26658456772566" rx="5.690824823919684" ry="1.5481499102897942" fill="#f4d6be" opacity=".5" transform="rotate(29.777318644337356)"/><ellipse cx="421.35162320919335" cy="336.35075502097607" rx="3.6834729278925806" ry="2.582256104797125" fill="#f4d6be" opacity=".5" transform="rotate(23.012034149141982)"/><ellipse cx="161.219650413841" cy="106.99450988322496" rx="1.1588609581813216" ry="2.686702651437372" fill="#f4d6be" opacity=".5" transform="rotate(21.05284540215507)"/><ellipse cx="270.09259234182537" cy="285.2114140987396" rx="1.736919267801568" ry="1.6898309076204896" fill="#f4d6be" opacity=".5" transform="rotate(22.11375146987848)"/><ellipse cx="521.6190604493022" cy="144.31354459375143" rx="1.5729330773465335" ry="2.044364041183144" fill="#f4d6be" opacity=".5" transform="rotate(9.236260568723083)"/><ellipse cx="598.03770580329" cy="338.5240066796541" rx="2.6317051846999675" ry="1.1011610310524702" fill="#f4d6be" opacity=".5" transform="rotate(26.90359977656044)"/><ellipse cx="474.5221425779164" cy="414.6870533004403" rx="3.2265580855309963" ry="2.1110633383505046" fill="#f4d6be" opacity=".5" transform="rotate(20.569566839840263)"/><ellipse cx="454.3965285178274" cy="697.6958937942982" rx="3.7904520777519792" ry="2.370023990981281" fill="#f4d6be" opacity=".5" transform="rotate(28.975171087076887)"/><ellipse cx="169.99021209776402" cy="399.24375247210264" rx="2.224612530786544" ry="2.7412589346058667" fill="#f4d6be" opacity=".5" transform="rotate(26.254563578404486)"/><ellipse cx="12.046676175668836" cy="180.40278516709805" rx="3.092716513434425" ry="1.0539457201957703" fill="#f4d6be" opacity=".5" transform="rotate(8.260784178273752)"/><ellipse cx="257.94377429410815" cy="3.396912105381489" rx="1.2123536774888635" ry="2.6741448058746755" fill="#f4d6be" opacity=".5" transform="rotate(6.214853574056178)"/><ellipse cx="212.70402702502906" cy="416.2994936108589" rx="2.896606207592413" ry="2.8512130500748754" fill="#f4d6be" opacity=".5" transform="rotate(15.300456982804462)"/><ellipse cx="110.08597109466791" cy="523.5695144161582" rx="3.0927370875142515" ry="2.7523738094605505" fill="#f4d6be" opacity=".5" transform="rotate(8.528244700282812)"/><ellipse cx="167.52201081253588" cy="155.58469332754612" rx="3.5032213248778135" ry="1.2624528426676989" fill="#f4d6be" opacity=".5" transform="rotate(31.326354449847713)"/><ellipse cx="315.4802025295794" cy="34.34177581220865" rx="4.332738718017936" ry="2.2379794674925506" fill="#f4d6be" opacity=".5" transform="rotate(4.292119711171836)"/><ellipse cx="151.27915455959737" cy="101.84546336531639" rx="4.179765822133049" ry="1.3541703512892127" fill="#f4d6be" opacity=".5" transform="rotate(32.83202339312993)"/><ellipse cx="548.5856339335442" cy="58.61868839710951" rx="3.8822411061264575" ry="2.4230060023255646" fill="#f4d6be" opacity=".5" transform="rotate(26.91774585749954)"/><ellipse cx="328.9000023622066" cy="290.7636474817991" rx="3.1823688747826964" ry="2.492655012756586" fill="#f4d6be" opacity=".5" transform="rotate(1.0017805371899158)"/><text x="26" y="40" fill="#233b52" opacity=".55" font-family="monospace" font-size="9" letter-spacing="3">COMFYCOMIC / ORIGINAL FRAME</text><text x="570" y="775" text-anchor="end" fill="#f4d6be" font-family="monospace" font-size="10">11 / CC</text></g></svg>